<svg id="Layer_1" data-name="Layer 1" xmlns="http://www.w3.org/2000/svg" viewBox="0 0 200 200">
  <title>one</title>
  <g>
    <path d="M56.87,99.5a44,44,0,0,0,6.12,0,18.48,18.48,0,0,1,10.82,1.34c1.67.77,3.75.76,5.65.87A10.62,10.62,0,0,1,84,103a175.21,175.21,0,0,1,21.88,14.13,88.4,88.4,0,0,1,10.37,8.49c5,5,9.84,10,12.32,16.86a7.76,7.76,0,0,1-.45,6.95,20.44,20.44,0,0,1-10.88,9.1,9.22,9.22,0,0,1-7.08-.41,124.47,124.47,0,0,1-12.53-6.18c-3.12-1.89-5.79-4.56-8.61-6.95-1-.82-1.77-1.86-2.71-2.74a6.91,6.91,0,0,1-2.62-4.47c-.1-1.18-1-1.89-1.6-2.81a61.52,61.52,0,0,0-8.56-11,6.68,6.68,0,0,1-1.13-1.56c-1.53-2.83-4-4.54-6.81-5.91-3.76-1.82-7.41-3.86-11.17-5.67A61.23,61.23,0,0,1,37.68,98.67C35.16,96.13,32.15,93.73,31,90a4.22,4.22,0,0,0-1.5-1.86c-3.58-2.74-4.15-6.6-4.3-10.74-.3-8,3.47-14.2,8.3-20,3.79-4.56,8.83-6.72,14.48-8,4.08-1,8.07-2,12.32-1.72,3.56.2,7,.61,10.24,2.27,6.35,3.3,13.24,4.93,20.19,6.38a6.56,6.56,0,0,0,1.93.08c6.43-.65,12.77-1.57,18.55-4.86,3.21-1.83,6.64-3.26,10-4.91a79.12,79.12,0,0,0,8.13-4.22c2.24-1.47,3.86-.86,5.64.59,1.5,1.22,3.07,2.35,4.63,3.49,3.12,2.27,6.3,4.46,9.36,6.81s4.1,3.62-.06,7.15c-3.59,3.05-7.87,5-12,7.15-3,1.55-6.15,2.87-9,4.59-6.17,3.67-13,4.7-19.93,5a19.82,19.82,0,0,1-6.6-1.31C95.74,74,90.31,72,84.86,70.14c-4.5-3.56-9.79-3.06-14.84-2.33-7,1-13.3,3.68-17.33,10.06-2.78,4.41-3.41,8.93-.7,13.6C53.52,94.1,55.15,96.67,56.87,99.5Zm21.94,18.89c3.78,3.26,7.69,6.09,10.92,9.55s6.07,7.79,9,11.64c3.51-.29,6.08-1.35,8-3.18a2.49,2.49,0,0,0,.8-2.62c-.85-2.57-1.47-5.25-3.67-7.16a38.36,38.36,0,0,1-3-3.13A17.94,17.94,0,0,0,90,117.8a33.84,33.84,0,0,1-3.71-.87A8.4,8.4,0,0,0,78.81,118.39Z"/>
    <path d="M146.69,130.89c-2,2.48-4.62,2.17-7,1a54.88,54.88,0,0,1-10.25-7c-3.51-3-4.58-7-4.67-11.13a15.45,15.45,0,0,0-2.79-8.5c-3.16-4.63-6.65-9-10.07-13.49a10.36,10.36,0,0,1-2.39-6.57c2.44-2.24,2.52-2.35,4.4-1,3.64,2.63,7.18,5.41,10.76,8.14a16.59,16.59,0,0,0,1.85,1.52c6.6,3.66,10.26,10,14.45,15.83.65.92,1.15,1.93,1.8,2.85,3,4.22,4.41,8.78,3.54,14A18,18,0,0,0,146.69,130.89Z"/>
    <path d="M146,72.67a15.23,15.23,0,0,1,7.72,3.84A113.74,113.74,0,0,0,164.23,85a22.44,22.44,0,0,1,9.43,14.54,59.71,59.71,0,0,1,1.07,12.41,10.62,10.62,0,0,1-.27,2.39c-.92,3.54-4.15,4.58-6.94,2.14s-5.68-4.12-8.23-6.61c-4.23-4.14-6.83-8.92-7.14-14.81a20.79,20.79,0,0,0-4.21-11.58c-1.71-2.33-3.1-4.92-3-8A10.76,10.76,0,0,1,146,72.67Z"/>
    <path d="M78.81,118.39a8.4,8.4,0,0,1,7.47-1.46,33.84,33.84,0,0,0,3.71.87,17.94,17.94,0,0,1,10.84,5.69,38.36,38.36,0,0,0,3,3.13c2.2,1.91,2.82,4.59,3.67,7.16a2.49,2.49,0,0,1-.8,2.62c-1.87,1.83-4.44,2.89-8,3.18-2.93-3.85-5.64-8.05-9-11.64S82.59,121.65,78.81,118.39Z" style="fill: #fff"/>
  </g>
</svg>
