<svg id="Layer_1" data-name="Layer 1" xmlns="http://www.w3.org/2000/svg" viewBox="0 0 200 200">
  <title>two</title>
  <g>
    <path d="M103.19,122.57c-6.13-1.62-12.41-2.14-18.68-2.65-9.08-.72-18.17-1.26-27.26-1.77a21.17,21.17,0,0,0-6.66.32c-5.12,1.37-10.14,3.12-15.18,4.78-4.36,1.43-4.57,2.27-2,6.2a7.46,7.46,0,0,0,7,3.77c5.43-.19,10.87-.33,16.3-.23,6.3.11,12.59.5,18.88.79.66,0,1.43,0,1.68,1.09-2.67,1.93-5.32,4-8.1,5.84-4.87,3.29-9.74,6.59-14.75,9.66A82.15,82.15,0,0,0,40.93,161c-1.72,1.63-3.31,3.46-3,6.34a13.49,13.49,0,0,1,1.43,1.28c1.61,1.9,3.39,2.88,5.87,1.52.43-.24,1.11,0,1.64-.08a35,35,0,0,0,5.6-1.4c3.75-1.48,7.39-3.13,10.1-6.41,1.22-1.46,3.07-2.41,4.67-3.54,1-.73,2.13-1.35,3.16-2.07,11.36-7.93,22.9-15.59,34.92-22.49,1.19-.69,2.26-1.6,3.41-2.41,0-.89-.1-1.58-.1-2.27C108.71,124.94,107.72,123.76,103.19,122.57Z"/>
    <path d="M121.41,36.19a13.78,13.78,0,0,0-.38-8.67,2.44,2.44,0,0,0-2.6-1.7,10.44,10.44,0,0,0-2.46.45,61.39,61.39,0,0,1-7.28,2c-2.69.4-4.71,2.48-7.49,2.56a3.05,3.05,0,0,0-2.5,2.06,15.48,15.48,0,0,0-.77,2.39,153.46,153.46,0,0,0-3.75,23.22A114.19,114.19,0,0,1,91,76.69c-1.49,6-4.12,11.62-4.9,17.8a17.14,17.14,0,0,1-1.18,3.59,17.56,17.56,0,0,0-1.23,6.76c.87,1.28,1.62,2.4,2.46,3.62a16.69,16.69,0,0,0,2.62.46,5.14,5.14,0,0,0,2.8-.34c1.92-1.3,4.29-1.33,6.2-2.42s3.46-2.77,5.34-3.9A6.75,6.75,0,0,0,106,98.8c1.67-4.17,3.44-8.3,5-12.5,3.4-9.12,4.92-18.67,6.36-28.24C118.45,50.73,119.32,43.35,121.41,36.19Z"/>
    <path d="M43.68,108.1a7.84,7.84,0,0,0,6.41-.72c2-1.18,4.46-.66,6.17-2.4,2.08-2.12,4.8-3.34,7.24-5a10.64,10.64,0,0,0,2.67-2.6,39,39,0,0,0,5.56-11.25,71.75,71.75,0,0,0,3-23.21c-.08-7-2-7.74-7.85-5.63-4,1.41-8,2.54-11.85,4.28-2.25,1-3.3,2.1-3.34,4.61a88.14,88.14,0,0,1-.91,11.71A58.86,58.86,0,0,1,48.2,88.51c-2,5.54-4.38,10.92-6.71,16.65.46.77,1.07,1.83,1.63,2.78Z"/>
    <path d="M151.44,111A51.76,51.76,0,0,0,139,112.29a15.9,15.9,0,0,0-4.66,1.86c-4,2.65-8.53,4.24-12.91,6.08a12,12,0,0,0-3.76,2.56c-.5.48-.53,1.46-.75,2.16,1.36,1.07,2.52,2,3.76,2.94a5.15,5.15,0,0,0,4.38.92c1-.24,1.94-.37,2.87-.69,4.76-1.62,9.71-2.69,14.37-4.63a43.47,43.47,0,0,0,7.19-3.41c2.81-1.82,5.42-4,5.24-8.48A16.1,16.1,0,0,0,151.44,111Z"/>
    <path d="M129.81,43.16c2.18,2.9,5,2.77,7.92,1.64a44.09,44.09,0,0,0,4.81-2.52c3.2-1.7,6.31-3.58,9.61-5a67.75,67.75,0,0,0,7.33-3.93,9.89,9.89,0,0,0,5.16-8.13,11.89,11.89,0,0,0-1.29-.16,43.47,43.47,0,0,0-10.74,1.78A58.37,58.37,0,0,0,141.25,31c-4.34,2.2-8.89,4-13.34,6a1.94,1.94,0,0,0-.92,3.08C127.83,41.18,129,42.05,129.81,43.16Z"/>
    <path d="M121.23,89.48c1.35,1.22,2.81,2.31,3.93,3.22a5.82,5.82,0,0,0,5.2.53l15.37-5.49c3-1.07,5.19-3.26,7.45-5.31,1.55-1.41,1.95-4,1-5.41s-2.56-1.49-4.18-1.25c-5.69.87-11.3,2-16.41,4.87-1.46.82-3,1.52-4.5,2.27-2.5,1.23-5,2.4-7.49,3.71A1.75,1.75,0,0,0,121.23,89.48Z"/>
    <path d="M147.69,52.71A60.24,60.24,0,0,0,141.84,55c-1,.41-2,.9-3,1.36C135.4,57.87,132,59.4,128.56,61a1.56,1.56,0,0,0-.42,2.71c.68.69,1.5,1.25,2.11,2A5.35,5.35,0,0,0,137,67.34c2.58-1,5.3-1.84,7.77-3.11,3.6-1.84,7-4,10.54-6,2.42-1.38,3.81-3.91,6.18-5.37,1.15-.72,1.47-2,.67-3.51C156.92,49.51,152.37,51.38,147.69,52.71Z"/>
  </g>
</svg>
